<?xml version="1.0" encoding="UTF-8" standalone="no"?>
<!DOCTYPE svg PUBLIC "-//W3C//DTD SVG 1.1//EN" "http://www.w3.org/Graphics/SVG/1.1/DTD/svg11.dtd">
<svg width="100%" height="100%" viewBox="0 0 1600 556" version="1.1" xmlns="http://www.w3.org/2000/svg" xmlns:xlink="http://www.w3.org/1999/xlink" xml:space="preserve" xmlns:serif="http://www.serif.com/" style="fill-rule:evenodd;clip-rule:evenodd;stroke-linejoin:round;stroke-miterlimit:2;">
    <g id="layer101">
    </g>
    <g id="layer102">
    </g>
    <g id="layer103">
    </g>
    <g id="layer104">
        <path d="M1176.7,540.3C1176.3,540 1175.2,539.6 1174.2,539.5C1171,539.3 1171.9,537.7 1175.6,537.3C1179.2,536.9 1182.4,538.5 1181.4,540.1C1180.8,541.2 1177.6,541.3 1176.7,540.3Z" style="fill:rgb(3,4,4);fill-rule:nonzero;"/>
        <path d="M1145.4,531.9C1145.1,531.3 1145.2,530.4 1145.8,529.8C1147,528.6 1151.3,530.6 1150.5,532.1C1149.7,533.3 1146.3,533.3 1145.4,531.9Z" style="fill:rgb(3,4,4);fill-rule:nonzero;"/>
        <path d="M1199.4,515.6C1197.6,514.2 1197.6,514.1 1199.3,513.5C1201.2,512.7 1204.3,514.7 1203.4,516.1C1202.7,517.4 1201.7,517.2 1199.4,515.6Z" style="fill:rgb(3,4,4);fill-rule:nonzero;"/>
        <path d="M1133.5,500.1C1132.8,498.9 1134.7,497.7 1136,498.5C1137.1,499.2 1136.4,501 1135,501C1134.5,501 1133.9,500.6 1133.5,500.1Z" style="fill:rgb(3,4,4);fill-rule:nonzero;"/>
        <path d="M369.8,463.3C369.1,461.9 369.5,460 370.4,460C371.6,459.9 372.1,462.8 371,463.5C370.5,463.8 370,463.7 369.8,463.3Z" style="fill:rgb(3,4,4);fill-rule:nonzero;"/>
        <path d="M295.4,444.6C293.9,443.4 293.7,442.9 294.8,441.9C295.8,440.8 296.3,440.9 297.7,442.3C300.1,444.6 298.1,446.6 295.4,444.6Z" style="fill:rgb(3,4,4);fill-rule:nonzero;"/>
        <path d="M366.5,348C365.7,346.8 368.5,345.6 370,346.5C370.6,346.8 370.8,347.6 370.5,348.1C369.7,349.3 367.3,349.3 366.5,348Z" style="fill:rgb(3,4,4);fill-rule:nonzero;"/>
        <path d="M305.4,256.9C304.4,255.2 306.7,253.3 308.1,254.7C309.3,255.9 308.5,258 307,258C306.5,258 305.8,257.5 305.4,256.9Z" style="fill:rgb(3,4,4);fill-rule:nonzero;"/>
        <path d="M302.5,254.1C301.8,252.9 303.7,251.7 305,252.5C306.1,253.2 305.4,255 304,255C303.5,255 302.9,254.6 302.5,254.1Z" style="fill:rgb(3,4,4);fill-rule:nonzero;"/>
        <path d="M288.5,249C288.2,248.5 287,248 285.9,248C283.7,248 281.4,243.9 282.3,241.6C282.8,240.3 283.6,240.4 288.7,242.1C295.3,244.4 297.5,246.2 296.7,248.4C296,250.2 289.5,250.7 288.5,249Z" style="fill:rgb(3,4,4);fill-rule:nonzero;"/>
        <path d="M123.5,232C122.7,230.8 125.5,229.6 127,230.5C127.6,230.8 127.8,231.6 127.5,232.1C126.7,233.3 124.3,233.3 123.5,232Z" style="fill:rgb(3,4,4);fill-rule:nonzero;"/>
        <path d="M316.1,196.6C315.4,195.8 315.3,194.9 315.8,194.6C316.4,194.3 317.3,194.7 317.9,195.4C318.6,196.2 318.7,197.1 318.2,197.4C317.6,197.7 316.7,197.3 316.1,196.6Z" style="fill:rgb(3,4,4);fill-rule:nonzero;"/>
        <g transform="matrix(0.818007,0,0,0.818007,107.831,75.7816)">
            <text x="714.279px" y="209.155px" style="font-family:'Futura-Medium', 'Futura', sans-serif;font-weight:500;font-size:210.767px;fill:white;">A</text>
            <text x="842.789px" y="209.155px" style="font-family:'Futura-Medium', 'Futura', sans-serif;font-weight:500;font-size:210.767px;fill:white;">T<tspan x="932.875px 1023.58px 1168.11px " y="209.155px 209.155px 209.155px ">LAN</tspan></text>
            <text x="1334.45px" y="209.155px" style="font-family:'Futura-Medium', 'Futura', sans-serif;font-weight:500;font-size:210.767px;fill:white;">T</text>
            <text x="1409.79px" y="209.155px" style="font-family:'Futura-Medium', 'Futura', sans-serif;font-weight:500;font-size:210.767px;fill:white;">A</text>
        </g>
        <g transform="matrix(0.410944,0,0,0.410944,992.799,166.714)">
            <text x="978.64px" y="198.071px" style="font-family:'Futura-Medium', 'Futura', sans-serif;font-weight:500;font-size:210.767px;fill:white;">2<tspan x="1097.13px 1215.62px 1334.11px " y="198.071px 198.071px 198.071px ">020</tspan></text>
        </g>
    </g>
    <g id="layer105">
        <path d="M191.5,554.4C184.4,553.7 175.6,552.3 172,551.4C162.4,548.9 140.9,541 137.9,538.9C136.5,537.9 133.6,536.5 131.4,535.8C129.3,535 124.8,532.6 121.5,530.5C118.2,528.3 114.3,525.9 112.8,525.1C102.2,519.6 66.4,485.6 67.3,481.9C67.6,480.8 67.3,480.3 66.5,480.6C65.2,481.1 53.3,464.4 54.2,463.4C54.5,463.1 53.7,461.8 52.4,460.5C49.4,457.5 38.5,434.8 35.3,425C32.5,416.5 28.7,401.4 27.1,392.5C25.1,381.9 23.8,359 25,357.5C25.6,356.8 25.7,356 25.3,355.7C24.2,355 25.6,331.2 26.9,327.7L28,325L73.4,325C100.6,325 119.1,325.4 119.5,325.9C119.8,326.5 119.5,328.8 118.9,331.2C118.3,333.6 117.1,340.7 116.3,347C115.1,356.4 115,360.6 116,370C116.6,376.3 117.5,382.9 118,384.5C118.5,386.2 119.6,389.8 120.4,392.6C124.1,404.8 132.2,419.3 140.9,429C155.2,444.9 173,455.8 195,462.1C204.3,464.7 227.4,465.8 237.3,464.1C252,461.5 270,453.9 280.1,445.9C284.2,442.6 285.8,442.4 292.1,444.3C295,445.2 297.1,445.3 298.1,444.7C299.1,444.1 302.4,444.7 308.9,446.9C313.9,448.7 320.9,450.6 324.3,451.1C327.7,451.7 331.9,452.8 333.5,453.6C336.8,455.3 348.4,459.1 357.1,461.3L362.6,462.7L362.6,459.9C362.6,457 361.7,456.1 360.5,458C360.1,458.6 359.3,458.6 358.2,458C355.7,456.7 326.1,448.8 322.5,448.5C318.9,448.2 308.2,445.5 302.3,443.3C299.4,442.3 296.7,442 293.6,442.4C290.9,442.8 288.9,442.7 288.5,442C288.2,441.4 291,437.5 294.8,433.2C303,424 310.8,412.8 314.5,404.5C316,401.2 317.7,397.7 318.1,396.8C318.6,395.8 319,394.2 319,393.2C319,392.2 319.4,391 319.9,390.4C321.1,389.1 323.8,374.8 324.6,365.4C325,360.8 324.7,353.7 324.1,348.6C323.3,343.2 323.2,339.4 323.8,338.8C324.4,338.2 326.8,338.5 330.1,339.4C333.1,340.3 336.9,341.2 338.5,341.4C342.7,342 354.1,344.7 363,347.2C381.5,352.3 385.3,353.1 386.2,352.2C387.3,351.1 386.1,350.6 380,349.5C378.1,349.1 375.2,348.4 373.5,348C371.9,347.5 360.8,344.8 349,342C322.4,335.7 322.9,335.8 322,334C320.8,331.6 317.8,322.7 317.2,320C316.9,318.6 313.7,312.6 310.2,306.5C298,286.1 295,280.2 289.1,265.8C286.9,260.5 285.1,253.7 285.6,252.9C286.4,251.5 288.8,251.8 297.6,254.5C304.1,256.5 306.7,256.8 309.7,256.2C311.8,255.7 314.4,255.7 315.5,256.1C318.7,257.3 319.5,257.1 317.4,255.5C316.4,254.7 314.6,254 313.5,254C312.4,254 309.4,252.9 306.9,251.6C303.7,249.9 302,249.4 301.3,250.1C300.7,250.7 299.2,251 297.9,250.8C296,250.6 295.5,249.9 295.7,247.9C295.9,245 294.6,244.1 287,241.7C281.6,240 280.6,238.3 279.2,228.7C275.7,205.3 275.5,196.8 278,172.7C281.5,137.9 299.6,96.3 322.9,69C326,65.4 331.4,59.5 335,55.8L341.5,49L346.5,50.6C349.3,51.4 352.3,51.9 353.2,51.6C354.2,51.4 357,51.8 359.5,52.5C364.4,54 366.6,52.9 362.2,51.2C360.7,50.6 356.7,49.6 353.2,48.9C349.8,48.3 346.7,47.3 346.3,46.7C345.7,45.8 355.7,36.1 357.3,36C357.8,36 359.4,35.1 360.8,33.9C372.4,24.8 401,10.7 415.5,7.1C425.9,4.5 427.2,4.1 427.7,3.6C428,3.3 429.5,3.9 431,5C434.2,7.3 435.7,7.6 434.1,5.6C432.6,3.8 434.9,1.7 437,3C437.9,3.5 438.9,3.5 439.7,2.8C440.5,2.2 443.8,1.9 448.1,2.2C453.4,2.6 455.6,3.3 457.4,4.9C458.8,6.2 460.9,7 463.1,7C465,7 468.3,7.9 470.5,9C472.7,10.1 476,11 478,11C481.8,11 499.5,14.7 502.2,16.1C503.2,16.6 504.9,17 505.9,17C507,17 508.2,17.5 508.5,18C508.8,18.6 510.3,19 511.8,19C516.8,18.9 503,14.1 493.4,12.6C490.4,12.2 488.8,11 489.3,9.6C489.6,9 488.6,8.4 487.1,8.3C471.6,6.9 468,5.9 464.6,2.1L462.7,0L473.6,0C485.2,0 511.5,2.4 516.5,4C518.2,4.5 522.9,5.9 527,7.1C555.9,15.5 583,31.6 606.7,54.4C610.1,57.7 612.7,60.7 612.4,61.2C612.1,61.6 612.4,62 613,62C615.4,62 628.4,78 635.8,90.2C651,115 659.6,139.2 664,169.5C665.4,178.7 664.8,217.3 663.1,226C662.6,229 661.6,234.2 661,237.5C659.4,246 658.4,246.7 652.4,243.6C640.6,237.5 622.2,230.7 612.5,228.9C609.8,228.3 605.5,227.5 603,226.9C600.5,226.4 592.9,225.4 586,224.7L573.5,223.5L573.7,220C573.7,218.1 574.3,212.7 575,208C576.3,198.8 575.7,181 573.9,173.2C568.4,149.7 556,128.5 539.4,114.1C534.9,110.2 530.9,107 530.5,107C530.1,107 528.6,106.1 527.1,105C522.6,101.9 508.3,95 506.1,95C505,95 503.9,94.6 503.6,94.1C503.3,93.6 501.6,93 499.8,92.7C498,92.4 494,91.6 491,90.9C488,90.3 480.4,89.6 474.2,89.5C468,89.4 462.7,89 462.3,88.6C462,88.3 461.2,88.4 460.5,89C459.9,89.5 457,90.3 454,90.9C433.7,94.4 415.7,103 400.8,116.5C394.2,122.4 382.6,137.6 378.8,145.2C370.3,162.6 366.8,176.8 366.8,194.5C366.8,209.3 369.8,224 375.8,237.4C378.3,243.1 378.3,243.3 376.5,244.6C374.7,245.9 374.8,246 377.2,246C379.3,246 380.5,247.3 384.5,254.2C387.2,258.8 390,263.3 390.8,264.2C391.6,265.2 392,266.6 391.7,267.5C391.3,268.3 391.5,269 391.9,269C393,269 397.8,277.6 400.4,284C401.4,286.5 402.7,289.5 403.2,290.7C403.8,291.8 404,293.4 403.7,294.2C403.5,294.9 403.8,296.2 404.5,297C406.2,298.9 410.5,314.1 412.5,325C413.3,329.7 414.2,338.8 414.5,345.3C414.8,351.8 415.2,357.5 415.4,357.8C416.3,359.3 412.9,392.5 411,401.2C409,410 404.8,425.1 403,429.5C399.6,438.2 397.9,442 392.5,452.5C387.7,461.7 385.9,464.5 384.4,464.4C381.8,464.2 372.9,462 370.9,460.9C368.2,459.6 367.9,461.1 370.4,463.1C371.7,464.2 373.8,465 375,465C377.1,465 383,467.6 383,468.5C383,468.8 380.7,472.3 377.8,476.2C371.2,485.5 358.1,500 356.3,500C355.5,500 355.1,500.4 355.4,500.9C356.1,502 347.9,509.6 337.1,517.8C328.6,524.2 326.7,525 325.3,522.6C324.6,521.5 315,519.6 315,520.6C315,520.8 317,521.5 319.5,522.1C325,523.5 325.8,524.6 323.4,527C320.5,529.8 303,539 300.5,539C299.3,539 297.5,539.9 296.5,541C295.5,542.1 294.2,543 293.6,543C293,543 289.4,544.3 285.5,545.8C263.3,554.8 227.7,558.1 191.5,554.4ZM269.5,540C268.9,539.1 262.9,537.1 255.5,535.5C250.1,534.3 253.6,536 261.6,538.4C265.9,539.8 269.6,540.9 269.8,540.9C270,541 269.8,540.6 269.5,540ZM249.7,534.4C249.4,534.1 246.9,533.7 244,533.6C241,533.4 239.4,533.6 240.2,534.1C241.7,535.1 250.7,535.3 249.7,534.4ZM227,529.1C226.2,527.5 225.7,527.3 223.5,528.3L221,529.5L223.8,530.1C228.1,531.1 228.1,531.1 227,529.1ZM189.5,520.5C187.9,519.8 184.9,519 183,518.6C179.3,518 180.6,518.8 186.5,520.8C190.8,522.2 193,522.1 189.5,520.5ZM304,516.5C304,515.8 295.9,513.8 295.3,514.4C295,514.7 296.3,515.3 298.1,515.9C302,517 304,517.2 304,516.5ZM148.8,487.1C149.1,486.2 148.6,486.2 146.6,487.1C145.2,487.8 144,488.7 144,489.1C144,490.3 148.3,488.5 148.8,487.1ZM138,486.5C136.6,484.8 135,484.5 135,485.9C135,486.4 135.8,487.1 136.8,487.3C137.7,487.6 138.7,487.8 138.9,487.9C139.1,487.9 138.7,487.3 138,486.5ZM129,484.5C129,484.3 127.6,483.3 125.9,482.4C124.2,481.6 123.1,481.3 123.5,482C123.9,482.6 125.2,483.5 126.4,484C129.1,485.1 129,485.1 129,484.5ZM335.5,470.2C333.6,468.5 322.2,464.8 320.3,465.3C318.9,465.6 319.1,465.9 321.5,466.9C324.6,468.2 333.7,470.8 335.5,470.9C336,471 336,470.7 335.5,470.2ZM309,282C306.6,280.5 305.3,280.9 307.4,282.5C308.5,283.3 309.6,283.7 309.9,283.4C310.2,283.1 309.8,282.5 309,282ZM316.5,232.1C315.4,231.6 312.9,231 311,230.7C307.5,230.1 307.6,230.1 311.5,231.5C315.8,232.9 319.9,233.4 316.5,232.1ZM598.5,132.1C598.2,131.5 596.6,131 595.1,131C593.6,131 591.8,130.4 591.1,129.8C590.1,128.7 589.9,128.9 590.2,130.5C590.5,131.9 591.3,132.4 592.9,132.2C594.1,132.1 595.9,132.4 596.8,132.9C598.7,134 599.5,133.6 598.5,132.1ZM585.8,129.8C585.5,129.1 584.5,128.3 583.4,128.1C581.8,127.8 581.7,128 582.9,129.4C584.5,131.3 586.3,131.5 585.8,129.8ZM562,126C559.6,124.5 558.3,124.9 560.4,126.5C561.5,127.3 562.6,127.7 562.9,127.4C563.2,127.1 562.8,126.5 562,126ZM596.8,118.2C597,117.5 596.5,117 595.6,117C594.7,117 594,117.7 594,118.6C594,120.3 596.2,120 596.8,118.2ZM370.5,106C372,105.4 371.2,105.1 367.5,105.2C363.6,105.2 363,105.4 365,106C368.2,107 368.1,107 370.5,106ZM340.4,89.8C341.3,88.6 342,86.4 342,85.1C342,82.8 341.9,82.7 340.7,84.5C339.9,85.5 338.8,86 338.2,85.6C336.5,84.6 333.5,87.1 333.3,89.8C333.1,91.6 333.5,92 336,92C337.9,92 339.4,91.2 340.4,89.8ZM329.5,89.1C329.2,88.5 329.7,87.7 330.5,87.2C331.8,86.5 331.9,86.2 330.8,85.3C328.8,83.7 325.1,83.1 324.7,84.3C324.5,84.9 325.5,86.4 326.9,87.7C329.7,90.1 330.4,90.5 329.5,89.1ZM379.5,84.4C380.9,83.8 380.9,83.6 379.4,81.9C378.5,80.8 377,80 376.1,80C374.7,80.1 374.7,80.2 376.2,81.1C377.2,81.6 377.7,82.7 377.4,83.5C376.7,85.2 377.1,85.3 379.5,84.4ZM338.3,67.9L341.5,67.8L338.5,67C336.9,66.6 334.2,66.2 332.5,66.2C329.8,66.1 329.7,66.2 331.7,67C333.3,67.6 333.8,68.5 333.4,69.7C332.9,71.4 332.9,71.4 334,69.8C334.6,68.7 336.4,68 338.3,67.9Z" style="fill:rgb(178,27,55);fill-rule:nonzero;"/>
        <path d="M336,89.5C335,88.3 335,87.6 335.8,86.8C337.3,85.3 340.6,88.2 339.6,89.9C338.6,91.4 337.5,91.3 336,89.5Z" style="fill:rgb(20,97,49);fill-rule:nonzero;"/>
        <path d="M1056.5,420.1C1055.8,418.9 1057.7,417.7 1059,418.5C1060.1,419.2 1059.4,421 1058,421C1057.5,421 1056.9,420.6 1056.5,420.1Z" style="fill:rgb(20,97,49);fill-rule:nonzero;"/>
        <path d="M210.4,399.6C199.2,396.1 190.4,388.5 185.2,378C182.8,373.1 182.5,371.4 182.5,362.5C182.5,353.6 182.8,351.9 185.3,346.9C191.5,334.2 204,325.3 217.3,324.3C224.4,323.7 236.6,326.6 239,329.5C239.7,330.3 240.8,331 241.5,331C244.2,331 252.7,341.8 255.1,348.2C259.7,360.4 257.7,375.7 250.1,385.9C241.4,397.4 223.4,403.7 210.4,399.6Z" style="fill:rgb(178,27,55);fill-rule:nonzero;"/>
        <path d="M814.5,363.1C813.8,361.9 815.7,360.7 817,361.5C818.1,362.2 817.4,364 816,364C815.5,364 814.9,363.6 814.5,363.1Z" style="fill:rgb(20,97,49);fill-rule:nonzero;"/>
        <path d="M1111.5,363.1C1110.8,361.9 1112.7,360.7 1114,361.5C1115.1,362.2 1114.4,364 1113,364C1112.5,364 1111.9,363.6 1111.5,363.1Z" style="fill:rgb(20,97,49);fill-rule:nonzero;"/>
        <path d="M458.9,231.1C447.7,227.5 439.3,219.4 434.9,208C431.8,199.9 432.5,186.8 436.4,178.3C440,170.5 446.8,164 455.8,159.7C461.8,156.8 463.4,156.5 471.5,156.5C479.3,156.6 481.3,157 486.5,159.5C494,163.1 502.4,171.6 505.9,178.9C508.2,183.8 508.5,185.8 508.5,194.5C508.5,203.4 508.2,205.1 505.7,210.2C496.8,228.4 477.4,237 458.9,231.1Z" style="fill:rgb(178,27,55);fill-rule:nonzero;"/>
    </g>
    <g id="layer106">
        <path d="M1423,547.4C1416.7,546.6 1409.9,545.4 1408,544.6C1406.1,543.9 1402.6,543.2 1400.2,543.2C1397.9,543.1 1395.2,542.6 1394.2,542.1C1393.3,541.6 1389.2,540.2 1385.2,539C1375.7,536.2 1353.3,524.8 1345,518.6C1337.4,512.9 1327,503 1327,501.5C1327,501 1338.7,488.8 1352.9,474.6L1378.9,448.7L1385.7,454.5C1397,464.2 1411.1,472 1426,476.9C1429.5,478.1 1433.4,479.7 1434.8,480.6C1436.6,481.8 1437.5,481.9 1438.5,481C1439.6,480.1 1440.8,480.1 1443.1,480.9C1447.2,482.3 1473.3,482.3 1477.9,480.9C1488.9,477.5 1493.9,473.1 1496.2,464.7C1498.1,457.5 1495.7,453.6 1486.5,449C1477.6,444.5 1476.3,444.1 1453,438C1427.6,431.5 1421.5,429.6 1410,424.7C1391.1,416.8 1376.7,404.8 1370.1,391.5C1367,385.4 1366.5,383.8 1364.9,374C1363.9,368 1364.7,352.3 1366.1,351.5C1366.5,351.2 1366.7,350.3 1366.4,349.6C1366.1,348.9 1366.6,345.4 1367.5,341.9C1375.1,312.4 1395.8,287.8 1424.9,273.5C1445.6,263.4 1463.9,259.5 1491.5,259.6C1522,259.7 1544.5,264.4 1566.1,275C1580.1,282 1597,294.1 1597,297.3C1597,298 1592.3,303.9 1586.5,310.5C1580.7,317.1 1572,327 1567.2,332.5C1562.5,338 1556.4,344.8 1553.7,347.7L1548.9,352.8L1539.2,346.3C1519.5,333 1498.5,325.9 1478,325.7C1460.8,325.6 1449.8,331.3 1447.1,341.9C1446,346.4 1446,347.5 1447.4,350.3C1450.9,357.8 1459,361.3 1491.5,369.4C1499.2,371.3 1508.2,373.6 1511.5,374.5C1518.8,376.5 1536.9,383.5 1543,386.8C1549.6,390.3 1561.5,399.6 1565.8,404.6C1574.9,414.9 1579.6,430 1578.6,445.5C1577.8,457.8 1572.9,477 1568.8,484.5C1568.2,485.5 1566.6,488.5 1565.3,491C1558.9,503.1 1545.1,517.6 1531.5,526.5C1523.7,531.6 1509,539 1506.7,539C1505.8,539 1504.8,539.5 1504.5,540C1504.2,540.6 1503,541 1501.9,541C1500.9,541 1499.2,541.4 1498.2,541.9C1495.5,543.3 1477.5,546.9 1467.5,548C1455.3,549.3 1436.9,549.1 1423,547.4ZM1375.1,352.7C1373.8,351.4 1372.5,352.4 1373.5,353.9C1373.8,354.5 1374.6,354.7 1375.2,354.4C1375.8,354 1375.8,353.4 1375.1,352.7Z" style="fill:white;fill-rule:nonzero;"/>
        <path d="M510.9,543.6C510.7,543.3 506,543 500.5,542.9C495,542.8 489.2,542.3 487.5,541.8C485.9,541.3 482.5,540.7 480.1,540.6C477.6,540.4 475.1,539.6 474.6,538.8C474,538 471.5,536.6 469,535.7C463.8,533.8 462.6,533.6 463.5,534.9C465.7,538.6 453.6,534.8 437,526.6C424.4,520.4 419.4,516.9 408.8,507L400.8,499.5L404.8,494.5C406.9,491.7 410,487.3 411.5,484.6C413.1,481.9 415.9,478.2 417.7,476.3C419.6,474.5 420.8,472.5 420.5,472C420.2,471.5 421.9,467.4 424.3,462.8C426.7,458.2 429.2,452.9 430,451C432.4,444.7 432.6,444.7 440.3,450.4C459,464.4 484.4,474.9 509,478.9C516,480 534.6,480.6 537,479.7C537.8,479.5 540.5,478.7 543,478C561.2,473.1 571.1,457.5 562.3,447.8C558.6,443.7 545.3,438.8 518.5,431.9C516.3,431.3 513.7,430.4 512.8,429.9C511.8,429.4 509.9,429 508.6,429C503.5,429 483.9,421.7 470.8,414.9C469.8,414.4 468.5,414 468,414C465.8,414 454.3,405.4 448.5,399.5C442,392.8 437.8,385.4 435.5,376.2C432.5,364.7 434.9,338.2 439.8,326.5C446.4,311.1 453.3,300 456.4,300C457.6,300 461.2,300.5 464.5,301C471.8,302.2 490.6,300.1 501.3,296.9C522.3,290.7 546.1,273.9 556.9,257.6L559.5,253.7L571,254.4C587.3,255.2 609.6,259.2 619.5,263C625.1,265.1 627.1,266 634,269.3C644.5,274.5 648.3,276.7 649.3,278.6C650.7,281 649.1,284.3 637.7,303C632,312.2 622.7,324.2 614.7,332.7L607.8,339.9L600.9,336.4C593.2,332.4 591.9,331.1 594.9,330.3C597.4,329.7 596.7,328 593.9,328C592.8,328 591.7,327.4 591.4,326.6C590.8,325.1 586.4,324.8 583.7,326.2C582.1,327 576.6,326 571.5,324C565.4,321.4 537.8,320.1 532.6,322.1C520.8,326.5 516.1,331.6 515.7,340C515.4,347.6 520,351.9 533.8,356.9C538.3,358.5 542,359.7 542,359.5C542,359.3 543.5,359.6 545.3,360.1C547,360.7 553.9,362.5 560.5,364.1C575.1,367.7 588.9,371.7 591.2,373C592.2,373.6 593.6,374 594.3,374C596.4,374 617.3,384.3 621.5,387.5C631.8,395.1 642,406.5 640.6,408.9C640.3,409.4 640.6,410 641.3,410.3C642.9,410.9 645.3,417.3 646.9,425C648.5,433 647.1,456.2 644.9,457.6C644.4,457.9 644,459.5 644,461.1C644,465.4 636.5,483.3 631.7,490.5C621.1,506.3 606.8,518.9 589.2,527.8C574.7,535.2 570.5,536.6 567.3,535.1C565,534 564.8,534.1 565.9,535.4C567.4,537.2 567.1,537.4 559.5,539.1C548.5,541.4 544,542.1 532,543C518,544 511.5,544.2 510.9,543.6ZM466,523C466,522.5 465.1,522 463.9,522C462.8,522 462.2,522.5 462.5,523C462.8,523.6 463.8,524 464.6,524C465.4,524 466,523.6 466,523ZM510.6,499.2C510.6,497.8 509.6,497.5 505.7,497.3C501.6,497.1 501,497.3 502,498.5C503.1,499.8 505.3,500.5 509,500.9C509.9,500.9 510.6,500.2 510.6,499.2ZM497.5,496.5C494.3,495.3 482,492.2 482,492.5C482,493.4 486.8,495.4 490.5,496.1C494.8,496.8 499.1,497.1 497.5,496.5ZM474,489.5C472.6,488.7 470.2,488.1 468.5,488.1C465.9,488.2 466.1,488.4 470,489.5C476,491.2 477,491.2 474,489.5ZM433.1,479.6C431.4,477.6 433.2,476.8 436.5,478C439.8,479.2 441,479.3 438.9,478C438,477.5 435.4,476.7 433.1,476.1C429.6,475.3 429.1,475.4 430.1,476.6C430.7,477.4 430.9,478 430.4,478C430,478 430.5,478.7 431.6,479.5C434,481.3 434.6,481.4 433.1,479.6ZM639,429.7C637.6,429 635.6,428.6 634.6,428.9C632.6,429.3 632.6,429.3 634.6,430.1C635.6,430.5 637.6,430.9 639,430.9L641.5,431L639,429.7ZM518,381.1C513.7,379.8 507.5,378.8 508.2,379.5C509.1,380.5 514.8,381.8 518,381.8L520.5,381.8L518,381.1ZM454.5,367C454.2,366.5 452.7,366.1 451.2,366.1L448.5,366.2L451.5,367C453.2,367.4 454.6,367.8 454.8,367.9C455,367.9 454.8,367.6 454.5,367ZM446.8,365.5C446.5,365.2 444.8,364.5 443,364C441.1,363.5 440.1,363.4 440.6,363.9C441.8,365.1 448,366.6 446.8,365.5ZM613,288.5C613,287.7 612.3,287 611.4,287C610,287 610,287.3 611,288.5C611.7,289.3 612.4,290 612.6,290C612.8,290 613,289.3 613,288.5Z" style="fill:white;fill-rule:nonzero;"/>
        <path d="M654.5,543C654.2,542.5 654.2,541.5 654.6,540.9C654.9,540.3 655.8,536.1 656.5,531.6C659.6,512.2 661.2,503.4 664.5,485.5C666.4,475.1 668.3,464.7 668.5,462.5C668.8,460.3 669.5,456 670,453C670.6,450 671.5,445.3 672,442.5C672.5,439.8 673.6,433.7 674.5,429C675.4,424.3 676.2,419.1 676.4,417.5C677,413 682.9,379.2 684,374C684.6,371.5 685.3,367.7 685.5,365.5C686,361.9 693.7,317 696,304.5C696.5,301.8 698.1,292.5 699.5,284C701,275.5 702.6,267.5 703,266.3L704,264L742.5,264C775.7,264 781.1,264.2 781.6,265.5C782.4,267.5 775.3,306.6 773.4,310.7C772.6,312.4 772.2,314.5 772.5,315.3C772.8,316 772.1,322 771,328.6C768.2,344 767.2,350.1 766,358C765.5,361.6 763,375.6 760.5,389.2C758,402.7 756,414.7 756,415.8C756,417 755.5,419.1 754.9,420.7C754.2,422.2 753.5,426.2 753.3,429.5C753,432.8 752.4,436 751.8,436.7C751.3,437.4 751.1,438.3 751.4,438.8C752,439.8 749.7,453.1 748.6,454.9C748.2,455.5 747.1,456 746.2,456C744.9,456 744.9,456.2 746.5,457.4C748.3,458.7 748.3,459.1 746.1,472.1C744.9,479.5 743.4,487.3 742.9,489.5C742.4,491.7 741.8,495.3 741.5,497.5C741.3,499.7 739.6,509.8 737.8,519.8L734.6,538.2L730.8,539.7C728.8,540.5 727.2,541.7 727.3,542.3C727.6,543.9 655.4,544.5 654.5,543ZM726.5,436C725.4,434.3 729,433.7 733.8,434.8C736.4,435.4 738.7,435.7 738.9,435.5C739.1,435.3 737.9,434.8 736.4,434.4C734.8,434.1 733.1,433.2 732.5,432.5C732,431.9 728.1,430.5 724,429.6C719.9,428.6 715.8,427.6 715,427.4C714.2,427.1 714.6,428 715.9,429.4C717.3,430.9 719.4,432 720.7,432C722,432 723.3,432.8 723.7,433.8C724.1,434.7 724.8,435.8 725.4,436.2C726.9,437.2 727.2,437.2 726.5,436ZM706.5,425.4C700.2,423.7 698.4,423.7 703,425.5C704.9,426.2 707.6,426.8 709,426.8C710.5,426.8 709.5,426.3 706.5,425.4ZM738.4,424.6C737.6,422.5 735.3,421.9 734.6,423.5C734.3,424.4 734.9,425 736.3,425.3C737.5,425.5 738.6,425.8 738.7,425.9C738.8,425.9 738.7,425.4 738.4,424.6ZM731,422.5C731,421.2 729.1,420.5 726.7,420.9C726.3,421 725,420.5 723.8,419.9C722.2,419 721.9,419.1 722.2,420.2C722.5,420.9 724.2,422 726.1,422.7C730.6,424.3 731,424.3 731,422.5Z" style="fill:white;fill-rule:nonzero;"/>
        <path d="M782.3,542.4C781.7,540.9 790,491.3 791.9,485C792.4,483.2 793.2,482.6 794.6,482.8C795.6,483 798.5,483.4 801,483.6L805.5,484L802.5,482.6C800.9,481.9 798.2,480.8 796.5,480.3C793.9,479.5 793.5,479 793.6,476C793.8,470.4 796.9,452.7 797.9,451.7C798.7,450.9 801.9,451.6 808,453.8C808.8,454.1 812,454.9 815,455.5C818.1,456.1 820.4,457.1 820.3,457.7C819.9,459.5 829.9,462.1 832,460.7C833.4,459.9 835.2,460 839.7,461.3C842.9,462.1 845.9,462.5 846.3,462C847.1,461.3 838.8,458.8 829,457C821.4,455.6 799.5,449.9 798.7,449.1C798.3,448.7 798.9,443.5 800,437.4C801.9,427.1 803.1,420.1 805,408.5C807.3,393.7 810.1,378.3 810.7,377C811,376.2 811.2,375 811.1,374.3C811,373.7 811.4,371.2 812,368.8C812.6,366.5 813.2,363.4 813.4,362C813.9,357.3 817.1,338.5 818,334.2C818.6,331.9 819,328.7 819,327.2C819,325.6 819.3,324 819.6,323.7C820,323.3 820.5,321 820.7,318.4C820.9,315.8 821.5,312.8 822.1,311.8C822.7,310.7 823.3,307.3 823.5,304.2C824,296 825.5,292.6 828.3,293.3C830.5,293.9 830.5,293.9 828.1,292.1C825.8,290.3 825.8,290.2 827,282.9C827.7,278.8 828.5,275.1 828.8,274.6C829.1,274.1 829.5,271.9 829.7,269.6C829.9,267.4 830.4,265.2 830.9,264.7C832.2,263.4 960.7,264.3 962.1,265.7C962.7,266.3 964.6,266.6 966.4,266.3C972.8,265.3 999.3,272.3 1012.9,278.6C1021.5,282.6 1035,291.8 1041.8,298.4C1049,305.3 1055.4,313.5 1054.6,314.8C1054.3,315.3 1052.7,315.7 1050.9,315.8C1047.5,315.9 1045.4,317 1048.6,317C1049.6,317 1052.3,317.6 1054.5,318.4C1058.1,319.5 1058.9,320.5 1062.6,327.9C1066.1,334.8 1070.5,349.2 1070.9,355C1070.9,355.8 1071.5,360.1 1072.1,364.5C1073.3,373.3 1072.7,386.6 1070.5,400.5C1068.1,415.7 1066.8,421.1 1065.5,421.6C1064.8,421.9 1064.4,422.9 1064.7,423.8C1065.8,428.4 1049.7,462.2 1042.7,469.8C1041.1,471.5 1039.9,471.9 1037.8,471.5C1035.1,470.9 1035.1,470.9 1036.5,473.6C1038.3,477.1 1038,477.6 1027.5,488.8C1018.9,497.9 1018.8,498 1014.1,498C1011.5,498 1007.1,497.4 1004.4,496.6C1001.7,495.8 996.6,494.9 993,494.6C987,494 986.7,494.1 988.2,495.7C989.5,496.9 991.4,497.3 995.7,497.2C1003.6,496.9 1012.5,499 1012.5,501.2C1012.5,502.1 1010.7,504.3 1008.5,506C1005.1,508.7 1004,509.1 1001,508.5C989.6,506.4 984.6,507.1 994.3,509.5C996.5,510 998.5,511 998.7,511.6C999.1,512.9 987.1,520.7 980,523.7C977.5,524.8 973.2,526.7 970.5,527.9C965.5,530.1 965.3,530.1 958.5,528.4C954.6,527.5 950.5,526.1 949.3,525.4C946.3,523.5 939.5,522.1 938,523C937.3,523.4 938.7,524 941.3,524.4C943.8,524.8 946.4,525.8 947,526.5C947.7,527.3 949,528 949.9,528C950.8,528 952,528.4 952.6,528.9C953.1,529.4 954.9,530 956.5,530.2C958.2,530.4 959.4,530.9 959.3,531.5C959,533.4 941.3,538.4 925.5,541.1C912.8,543.3 895.4,543.9 841.2,543.9C788.1,544 782.9,543.9 782.3,542.4ZM929.9,521.6C929.7,521.4 928.2,521 926.5,520.6C924.3,520.1 923.9,520.2 925,521C926.4,521.9 930.9,522.5 929.9,521.6ZM910.7,516.9C909.8,516.3 909.2,515.4 909.6,514.9C909.9,514.3 909.3,514.4 908.1,515.2C906.2,516.4 906.2,516.5 907.8,517.2C908.7,517.5 910.2,517.9 911,517.9C912.1,517.9 912.1,517.7 910.7,516.9ZM902,514.6C900.1,514 897,512.7 895.1,511.8C891.9,510.1 883.9,509.2 885.3,510.6C886.3,511.6 901.2,515.9 903.5,515.8C904.7,515.8 904.1,515.3 902,514.6ZM957,515.2C957,514.8 956.1,514.4 955,514.4C953.9,514.4 953,514.8 953,515.2C953,515.6 953.9,516 955,516C956.1,516 957,515.6 957,515.2ZM876,506.9C874.6,506.3 870.6,505 867,504C863.4,503 856.6,500.8 851.8,499.1C847,497.5 841.3,495.8 839.3,495.4C837.2,495 835,494.3 834.4,493.8C833.6,493.3 833.1,493.7 832.7,495C832.4,496.2 832.7,497.3 833.3,497.5C837.3,498.8 849.7,501.8 851,501.7C852.6,501.7 868.6,505.5 873,507C876.6,508.1 879,508.1 876,506.9ZM980.4,505.6C979.8,504.1 968.5,500.6 967.1,501.5C966.6,501.8 964.1,501.5 961.6,500.8C958.4,500 956.7,499.9 956,500.6C955.2,501.4 957.8,502.3 964.2,503.8C969.3,505 974.9,506.1 976.5,506.3C978.2,506.5 979.8,506.8 980.2,506.9C980.6,506.9 980.7,506.4 980.4,505.6ZM825.9,495.6C825.7,495.4 824.2,495 822.5,494.6C820.3,494.1 819.9,494.2 821,495C822.4,495.9 826.9,496.5 825.9,495.6ZM977.5,492.1C973.5,490.5 970,490 970,490.9C970,491.8 973.1,492.6 977.5,492.8L979.5,492.9L977.5,492.1ZM827.6,490.7C826,489.5 826,489.3 827.4,488.1C828.4,487.3 830,487 831.6,487.4C833.2,487.8 833.9,487.7 833.5,487.1C832.6,485.6 823,486.2 823,487.8C823,488.4 823,489.3 822.9,489.8C822.9,490.2 823.9,490.8 825.2,491.2C828.9,492.2 829.5,492.1 827.6,490.7ZM989.1,485.7C988.5,484.9 988.3,484 988.7,483.7C989,483.3 988.7,483 987.9,483C987.1,483 985.9,483.9 985.2,485C984.1,486.8 984.2,487 987.1,487C989.6,487 990,486.7 989.1,485.7ZM931.9,481.6C931.7,481.4 930.2,481 928.5,480.6C926.3,480.1 925.9,480.2 927,481C928.4,481.9 932.9,482.5 931.9,481.6ZM917.6,478C910.4,476.1 907.6,474.4 910.1,473.6C910.9,473.3 914.9,472.6 919,471.9C923.1,471.3 929.2,469.9 932.5,468.9L938.5,467.1L940.8,470C942.1,471.7 943.5,473 944,473C945.2,473 944.7,469.6 943.3,468.7C941,467.3 941.9,466.1 946.9,463.6C959.1,457.4 971.5,445.7 978.3,434.2C981.6,428.5 986.2,417.2 987.5,411.5C988.5,406.9 989.8,405.9 993.9,406.5L997.5,407L993.5,405.7C989.5,404.4 989.5,404.4 990,400C993.2,371.3 983.3,351.3 960.9,341.1C950.3,336.3 944.7,335.5 919.5,335.5L896.5,335.5L895.3,343.5C894.6,347.9 893.6,353.8 893.1,356.5C892.6,359.3 891.7,364.9 891.1,369C889.4,380.4 889,380.9 883.8,379.9C881.5,379.5 877.7,378.7 875.5,378.1C864.5,375.5 847.6,372.1 847.2,372.5C847,372.7 848.1,373.2 849.6,373.5C851.2,373.8 856.1,375 860.5,376.2C864.9,377.3 872.3,379.1 877,380.2C881.7,381.2 886.1,382.7 886.9,383.4C888,384.6 887.4,389.3 883.2,413.1C880.4,428.7 877.9,443.1 877.5,445C877.2,446.9 876.5,451.2 876,454.5C875.5,457.8 874.5,463.3 873.7,466.7L872.2,472.9L885.9,473.3C897.2,473.7 901.3,474.3 910,476.8C915.8,478.5 921.4,479.8 922.5,479.8C923.6,479.8 921.4,479 917.6,478ZM1033,469.5C1032.3,468.7 1031,468 1030.1,468C1028.8,468.1 1028.8,468.3 1030.4,469.5C1033,471.4 1034.6,471.4 1033,469.5ZM866,467.1C866,465.7 862.2,465.1 861.7,466.4C861.4,467.1 862.2,467.7 863.6,467.8C864.9,467.9 866,467.6 866,467.1ZM1026.4,467.1C1026.7,466.6 1025.6,466 1024,465.8C1022.3,465.5 1021,465.5 1021,465.7C1021,466 1023.8,467.3 1025.7,467.9C1025.8,468 1026.1,467.6 1026.4,467.1ZM858.5,465.1C858.7,464.6 857.2,463.8 855,463.2C851.8,462.4 851,462.5 851,463.5C851,465.3 857.5,466.7 858.5,465.1ZM841.1,448.6C840.2,447.5 840.2,447 841.1,446.5C842.6,445.5 836.7,443 832.9,443C831.4,443 829,442.5 827.6,441.9C825.2,440.8 821.1,441.4 822.4,442.7C822.9,443.2 839.1,449.2 841.9,449.9C842.1,450 841.7,449.4 841.1,448.6ZM1057,420C1055.6,419.6 1053.2,419.2 1051.5,419.2L1048.5,419.2L1051.5,420C1053.2,420.4 1055.6,420.8 1057,420.8L1059.5,420.8L1057,420ZM844,371C840.6,369.9 838,369.9 840.5,371C841.6,371.5 843.4,371.8 844.5,371.8C846.1,371.8 846,371.6 844,371ZM836.5,369.1C835.4,368.7 833.2,368 831.5,367.7L828.5,367.1L831.5,368.5C833.2,369.3 835.4,369.9 836.5,369.9L838.5,369.9L836.5,369.1ZM825.5,366C825.2,365.5 823.7,365 822.2,365.1L819.5,365.2L822,366C825.5,367.1 826.2,367.1 825.5,366ZM1017.2,301.6C1015.7,301.1 1013.7,300.1 1012.7,299.2C1011.8,298.4 1009.8,297.6 1008.2,297.5C1006.7,297.4 1004.7,297 1003.8,296.6C1002.7,296.1 1002,296.2 1002,296.8C1002,297.3 1004.7,298.5 1007.9,299.4C1011.2,300.3 1014.9,301.9 1016.2,302.9C1017.8,304.3 1018.7,304.5 1019.2,303.7C1019.7,302.9 1018.9,302.2 1017.2,301.6ZM1026.1,302.5C1024.3,301.7 1022.5,301 1022.1,301C1020.8,301.1 1026.6,303.9 1028,303.9C1028.8,303.9 1028,303.3 1026.1,302.5Z" style="fill:white;fill-rule:nonzero;"/>
        <path d="M1073.5,542.9C1072.7,541.6 1075.8,520.6 1077.3,517C1077.9,515.6 1078.2,513.5 1078.1,512.2C1078,510.9 1078.3,507.8 1078.9,505.2C1079.5,502.6 1080.5,497 1081.1,492.8C1081.8,488.5 1082.8,484.5 1083.5,484C1084.4,483.2 1088.2,484.1 1096.6,487C1107.7,490.8 1119.2,494.1 1128.4,496C1130.6,496.4 1133,497.6 1133.7,498.5C1134.7,500 1135.2,500.1 1136.5,499C1137.7,498 1138.4,498 1140.3,499.2C1141.5,500.1 1147.5,501.9 1153.5,503.4C1159.6,504.9 1165.4,506.5 1166.5,506.9C1169.3,508.2 1192.4,514.6 1199.1,516C1203,516.9 1205.6,516.9 1207.6,516.3L1210.5,515.3L1207,514.6C1205.1,514.2 1202.5,513.5 1201.3,512.9C1192.1,509.1 1189,508.2 1184.9,508.2C1181.1,508.2 1152.3,500.5 1150.5,499C1150,498.6 1146.6,497.6 1143,496.9C1139.4,496.2 1135.8,495 1134.9,494.3C1134.1,493.6 1132.3,493 1130.9,493C1129.6,493 1125.3,492.1 1121.5,491C1117.7,489.9 1112.8,489 1110.7,489C1108.6,489 1104.9,488.1 1102.4,486.9C1099.9,485.8 1094.6,484.1 1090.7,483.1C1085.6,481.8 1083.5,480.9 1083.6,479.8C1083.8,477 1088,452.5 1089,448.2C1089.6,445.9 1090,442.7 1090,441.2C1090,439.6 1090.6,437.5 1091.4,436.4C1092.2,435.4 1092.6,433.5 1092.4,432.4C1092.1,431.2 1092.3,429.9 1092.8,429.6C1093.4,429.3 1093.6,428.1 1093.3,427.1C1093,426 1094.9,413.3 1097.4,398.8C1103.1,366.6 1103.7,363.8 1105.5,362.4C1106.6,361.6 1106.6,361.2 1105.5,360.4C1104.4,359.7 1105.2,353.9 1110.1,327.5C1113.4,309.9 1116.5,292.6 1117,289C1118,281.9 1119.5,273.5 1120.8,268L1121.6,264.5L1232.5,264.2C1293.5,264.1 1343.8,264.4 1344.2,264.8C1345,265.6 1343,278.9 1337,311.3C1336.5,314.1 1335.5,319.9 1334.8,324L1333.5,331.5L1289,331.5C1263.5,331.5 1244.6,331.1 1244.8,330.6C1245,330.1 1244.6,329.3 1243.8,328.9C1241.7,327.5 1240.6,327.9 1242,329.5C1243,330.7 1243,331.1 1241.9,331.5C1241.1,331.8 1228.6,332.1 1214,332.2L1187.5,332.5L1183.9,352L1180.4,371.5L1204.9,371.8C1221.3,371.9 1229.8,372.4 1230.7,373.2C1231.7,374 1232.4,374 1233.2,373.2C1234.1,372.3 1245,372 1272.7,372C1307.7,372 1311.1,372.1 1311.7,373.7C1312.3,375.3 1303.5,426.9 1301.8,431.8L1301,434L1235.2,434L1169.3,434L1168.6,439.1C1168.1,443 1167.4,444.3 1165.9,444.7C1164.2,445.2 1164.1,445.4 1165.5,446.4C1167,447.4 1166.9,448.6 1165.1,459C1163.9,465.2 1163,471.6 1163,473.2L1163,476L1185.5,476C1204.8,476 1208.4,476.2 1210.6,477.6C1212.6,478.9 1213,479 1212.8,477.9C1212.4,476.1 1223,475.4 1226.1,477C1227.6,477.9 1228.5,477.9 1229.3,477.1C1230.7,475.7 1308.6,475.5 1309.5,477C1310,477.9 1303.1,519.6 1300.9,529C1300.3,531.5 1299.7,535.2 1299.5,537.2C1299,544.3 1302.1,543.9 1248.1,543.7C1214,543.6 1198.9,543.2 1197.9,542.4C1197.1,541.8 1195.4,541 1194,540.7C1192.6,540.4 1189.5,539.6 1187.1,539C1184.7,538.4 1181.8,538.2 1180.7,538.6C1178.8,539.2 1179,539.4 1182,540.4C1183.9,541 1185.4,542 1185.3,542.5C1184.9,544 1074.4,544.4 1073.5,542.9ZM1159,533.8C1156.2,533.3 1151.4,531.9 1148.2,530.6C1140.9,527.5 1132.7,526.2 1133.5,528.2C1133.8,529 1138.9,530.7 1145.8,532.4C1152.2,534 1157.9,535.6 1158.3,536C1158.8,536.4 1160.2,536.2 1161.5,535.6C1163.8,534.6 1163.6,534.4 1159,533.8ZM1275,496C1274.4,494.9 1273.5,494.2 1272.9,494.5C1271.4,495.5 1271.8,496.8 1273.8,497.3C1274.7,497.6 1275.6,497.8 1275.8,497.9C1275.9,497.9 1275.6,497.1 1275,496ZM1236.6,481.9C1232.7,480.3 1231.5,480.2 1230.9,481.2C1229.7,483 1231.9,484 1237,483.9L1241.5,483.9L1236.6,481.9Z" style="fill:white;fill-rule:nonzero;"/>
        <path d="M0,289.6C0,288.3 0.4,284.9 1,282C1.5,279.1 2.2,273.8 2.5,270.1C2.8,266.5 3.5,261.5 4,259C5.5,251.5 6.7,244.7 12,214C14.8,197.8 17.5,182.3 18,179.5C18.5,176.8 21.9,157.6 25.5,137C29.1,116.4 32.5,97.1 33,94.3C35,83.7 35.9,78.3 37.6,68C38.5,62.2 39.6,57 40.1,56.4C40.6,55.8 40.7,55.1 40.4,54.8C39.8,54.1 43.7,32.3 45,29.5C45.5,28.4 45.9,26.6 45.7,25.5C45.5,23.5 46.1,23.5 125,23.5C198.1,23.5 205.1,23.6 212.2,25.3C216.4,26.3 220.4,27.7 221,28.5C221.7,29.3 222.6,29.7 223.1,29.4C224.7,28.4 233.3,32.2 239.5,36.6C248.1,42.5 253.6,49 257.8,57.8L261.5,65.5L261.4,80C261.3,95.3 260.5,99.5 254.9,111.5C248,126.5 233.9,140.5 217.6,148.5C214.3,150.1 212.3,151.6 213.1,151.8C223.1,155.1 239,165.7 239,169.2C239,170.3 239.4,170.9 239.9,170.6C242.4,169 249.6,182 251,190.5C251.5,193.6 251.9,196.5 251.8,196.9C251.7,197.2 252,198.3 252.4,199.2C253.7,202 252.6,204.5 250.2,204.4C247.5,204.3 247.4,205.6 250,207C251.8,207.9 251.9,208.7 251.4,213.8C250.5,221.7 248.1,230.3 246.3,231.7C245.1,232.7 244.1,232.6 241.8,231.4C239.4,230.2 238.9,230.1 239.2,231.2C239.5,231.9 240.5,232.7 241.6,232.9C245.8,233.7 246.1,234.9 243.1,240.8C241.5,244 238.3,249.1 235.9,252.3L231.7,258L219.4,258C212.4,258 204.1,258.6 200,259.5C191.3,261.3 175.5,267.2 169.1,271C162.1,275 150.1,284.2 146.1,288.4L142.6,292L71.3,292L0,292L0,289.6ZM125.9,231.6C126.7,230.7 130.7,230.1 139.8,229.8C159.2,229 169.2,224.3 174.5,213.6C176.8,208.8 177.2,207 176.8,201.6C176.4,194.4 173.2,189 168.3,187.3C159.7,184.2 157.4,184 128.1,184C104.6,184 97.2,183.7 94.6,182.6L91.3,181.2L90.6,188.3C90.2,192.5 89.3,196.1 88.4,197.1C87.6,198 87.3,199.1 87.8,199.4C88.5,199.8 84.8,224.5 84,224.5C83.9,224.5 83.7,225.7 83.6,227.3L83.4,230L102.1,230C117.5,230 121,230.3 122,231.5C123.5,233.4 124.4,233.4 125.9,231.6ZM157.9,127.9C172,125.7 180.8,118.6 182.9,108C184.9,97.8 182.4,92 174.2,88.2L168.5,85.5L138.5,85.5L108.5,85.5L107.3,93C106.6,97.1 105.6,103.4 105.1,107C104.2,112.7 103.1,119 101.4,126.8L101,129L126.1,129C140,129 154.3,128.5 157.9,127.9ZM90.3,72C90,70.9 89.3,70 88.6,69.9C88,69.9 85.5,69.7 83,69.4C78.2,69 78.6,69.4 86.5,72.6C90.7,74.3 90.9,74.2 90.3,72ZM48.8,56.6C48.7,56.4 47.3,56 45.8,55.6L43.2,55L45.3,57.4C47.1,59.5 47.6,59.6 48.3,58.4C48.8,57.5 49,56.7 48.8,56.6Z" style="fill:white;fill-rule:nonzero;"/>
    </g>
</svg>
